<?xml version="1.0" encoding="utf-8"?>
<!-- Generator: Adobe Illustrator 21.0.0, SVG Export Plug-In . SVG Version: 6.00 Build 0)  -->
<svg version="1.1" id="Layer_1" xmlns="http://www.w3.org/2000/svg" xmlns:xlink="http://www.w3.org/1999/xlink" x="0px" y="0px"
	 viewBox="0 0 237 95" style="enable-background:new 0 0 237 95;" xml:space="preserve">
<style type="text/css">
	.st0{fill:#FF0000;}
	.st1{enable-background:new    ;}
	.st2{fill:#FFFFFF;}
</style>
<rect id="Retângulo_1" class="st0" width="237" height="95"/>
<g class="st1">
	<path class="st2" d="M19.2,82V12h16L41,48l5.7-36H63v70.1H50V48.3L44.3,82h-6.7l-5.7-33.4V82H19.2z"/>
	<path class="st2" d="M91.2,12l10.6,70H89.1l-1.4-10.8h-9.8L76.4,82H63.9l10.5-70H91.2z M86.4,60l-3.6-29.4L79.4,60H86.4z"/>
	<path class="st2" d="M116.6,12c2.3,0,4.5,0.4,6.7,1.1c2.1,0.7,4,1.9,5.6,3.5c1.7,1.6,3.1,3.6,4.2,6c1.1,2.5,1.8,5.5,2.2,9
		c0.5,4.3,0.3,8-0.4,10.9c-0.7,2.9-1.5,5.2-2.5,7c-1.1,2.1-2.5,3.8-4.1,5l8.3,27.6h-12.8l-6.1-23.5l-2.8,0.5v23h-12.6l0.1-70H116.6z
		 M114.8,46.6c1.5-0.1,2.8-0.5,3.8-1.1c1-0.6,1.8-1.5,2.5-2.5c0.7-1,1.1-2.1,1.4-3.4c0.3-1.3,0.4-2.6,0.4-3.9c0-1.4-0.1-2.8-0.4-4.2
		c-0.3-1.4-0.7-2.6-1.3-3.7c-0.6-1.1-1.4-2-2.5-2.6c-1-0.7-2.4-1-4-1V46.6z"/>
	<path class="st2" d="M146.1,12l5.6,42.2l5.9-42.2h12.6l-11.1,70h-14.8l-11.2-70H146.1z"/>
	<path class="st2" d="M171,82V12h23.5v12.4h-10.6v15.8h10.7v13h-11.3V69h11.4v13H171z"/>
	<path class="st2" d="M211,11.9v57.5h10.8v12.7h-23.2V12L211,11.9z"/>
</g>
</svg>
